<?xml version="1.0" encoding="UTF-8"?>
<svg id="Layer_2" data-name="Layer 2" xmlns="http://www.w3.org/2000/svg" viewBox="0 0 225 222.78">
  <defs>
    <style>
      .cls-1 {
        fill: #3dbb96;
      }
    </style>
  </defs>
  <g id="Layer_1-2" data-name="Layer 1">
    <g>
      <path class="cls-1" d="m225,28.37v178c-4.45,11.83-12.99,16.47-25.58,16.41-57.94-.29-115.89-.29-173.84,0-12.59.06-21.13-4.58-25.58-16.41V28.37C4.42,16.45,13.11,11.44,25.63,12c7.98.36,16-.04,23.99.11,3.59.07,5.84-.51,6.55-4.81C56.97,2.53,60.99.08,66.18,0c5.54-.08,9.58,2.25,10.55,7.23.81,4.13,2.87,4.91,6.55,4.88,19.16-.12,38.33-.12,57.5,0,3.66.02,5.77-.74,6.6-4.86C148.38,2.21,152.28-.07,157.87,0c5.4.07,9.37,2.67,10.18,7.7.62,3.84,2.59,4.43,5.81,4.4,8.5-.1,17.01.26,25.49-.1,12.52-.53,21.22,4.45,25.64,16.37Zm-112.47,46.1c-32.67,0-65.33-.01-98,0-6.96,0-7.29.35-7.29,7.39-.01,37.83-.02,75.66,0,113.5,0,13.88,5.9,19.78,19.73,19.78,57,.01,114,.01,171,0,13.89,0,19.78-5.86,19.79-19.72.03-37.67.01-75.33,0-113,0-7.88-.09-7.97-8.23-7.97-32.33,0-64.67,0-97,0Zm-56.78-38.77c-5.67,5.13-7.08,11.9-4.38,18.25,2.83,6.67,9.12,10.55,16.3,10.05,7.01-.49,13.08-5.54,14.77-12.27,1.58-6.33-.3-12.3-5.21-15.47,0,3.41.11,6.56-.02,9.7-.27,6.45-4.53,10.46-10.94,10.46-6.04,0-10.24-4.08-10.49-10.33-.13-3.25-.02-6.51-.02-10.39Zm112.58-.02c0,3.66.06,6.75-.01,9.83-.15,6.65-4.04,10.7-10.41,10.92-6.38.22-10.66-4.03-11.06-10.86-.17-2.87.53-5.86-.71-8.88-6.52,5.83-6.44,16.05-.19,22.46,6.48,6.65,17.15,6.51,23.68-.29,6.09-6.36,5.82-17.13-1.3-23.18Z"/>
      <path class="cls-1" d="m178.43,146.25c0,6.65.25,13.32-.06,19.96-.55,11.83-8.02,19.57-19.9,20.28-7.8.47-15.67.48-23.47.03-12.92-.76-20.29-8.8-20.41-21.86-.13-13.99-.13-27.98.01-41.97.14-13.45,8.25-21.94,21.62-22.54,7.15-.32,14.33-.31,21.48,0,12.14.5,19.61,7.95,20.68,20.15.2,2.32.48,4.65.51,6.97.07,6.33.02,12.66.02,18.98h-.5Zm-22.76-2.88c0-5.33-.07-10.66.02-15.99.07-4.17-2.12-6.12-6.02-6.44-1.99-.16-4-.13-5.99-.07-4.02.12-6.19,2.24-6.21,6.27-.05,10.83-.06,21.66,0,32.49.02,4.04,2.37,6.05,6.28,6.29,1.83.11,3.67.09,5.5.02,4.19-.15,6.46-2.22,6.44-6.57-.03-5.33,0-10.66-.02-15.99Z"/>
      <path class="cls-1" d="m74.76,186.7c-7.3-.29-15.4-1.12-23.48-2.3-3.87-.57-5.22-2.51-5.36-6.32-.48-13.17-.59-13.14,12.48-13.17,5.49-.01,10.99.07,16.47-.28,3.32-.21,6.91-.74,6.73-5.54-.16-4.49-3.24-5.33-6.84-5.54-5.48-.31-10.96-.75-16.44-.87-3.75-.09-5.26-1.68-5.46-5.44-.66-12.77-.66-12.91,11.95-13.92,3.15-.25,6.34-.13,9.46-.56,3.16-.44,6.58-1.11,6.29-5.52-.26-4.04-3.44-4.59-6.5-4.68-6.65-.2-13.32-.31-19.97-.15-4.75.11-6.85-1.38-6.64-6.6.56-14.06-2.03-12.03,12.17-14.21,9.07-1.39,18.15-2.46,27.3-.57,10.05,2.07,15.47,7.7,16.57,17.9.9,8.35,1.39,16.77-6.06,23-1.32,1.11-.59,1.89.35,2.82,8.99,8.83,8.9,19.63,4.7,30.05-4.11,10.19-13.89,11.94-23.86,11.93-1,0-2,0-3.85,0Z"/>
    </g>
  </g>
</svg>